<svg xmlns="http://www.w3.org/2000/svg" width="2000" height="2000"><path fill="#FFF" d="M330 567h510c18.03 27.05 2.04 119.09 2.04 154.53v2.27c.01 16.3.01 32.59.01 48.88v23.97c0 .4 0 .4.01 2.41 0 25.71.01 51.41.02 77.12.01 26.44.01 52.89.01 79.34v11.24c0 .74.01 1.48.01 2.24 0 11.8 0 23.6.01 35.4v35.73c0 6.43 0 12.87.01 19.3.03 44.68.03 44.68-.57 65.56l-.06 2.1c-.36 11.88-1.11 23.72-2.19 35.56-.33 3.67-.62 7.35-.92 11.03-1.24 14.87-3.21 29.26-6.77 43.76-.6 2.51-1.15 5.03-1.68 7.55-1.8 8.56-3.98 16.76-6.93 25.01-.58 1.83-1.17 3.67-1.75 5.5-5.36 15.92-12.15 30.8-20.25 45.5-.66 1.21-1.31 2.42-1.97 3.63-1.33 2.46-2.68 4.92-4.03 7.37h-2c-.24.69-.49 1.39-.74 2.11-1.46 3.36-3.32 6.18-5.38 9.2-.73 1.07-1.45 2.14-2.2 3.24-.55.81-1.11 1.62-1.68 2.45h-2c-.21.68-.41 1.36-.62 2.06-1.85 3.94-4.49 6.73-7.38 9.94-.5.6-1.01 1.19-1.53 1.8-5.45 6.43-11.47 12.29-17.47 18.2h-2l-1 3c-7.72 6.11-15.47 12.16-23.38 18.03a154 154 0 0 0-5.13 4.04c-2.49 1.93-4.96 3.4-7.74 4.87-3.34 1.77-6.65 3.56-9.94 5.44-9.96 5.53-20.14 10.6-30.81 14.62-1.6.67-3.21 1.33-4.81 2-4.87 1.95-9.82 3.5-14.84 5q-3.285.975-6.54 2.04c-7.12 2.29-14.15 3.93-21.5 5.25-3.31.71-3.31.71-5.68 1.7-2.73 1.05-5.11 1.48-8.01 1.83-1 .12-2.01.25-3.04.37-.52.06-.52.06-3.14.37-2.07.25-4.13.5-6.19.76-.46.05-.46.05-2.76.32-2.49.36-2.49.36-4.41.86-3.39.82-6.85.96-10.32 1.22-.8.06-1.6.12-2.42.19-2.55.2-5.1.39-7.65.59-2.54.2-5.08.39-7.62.59-1.58.12-3.16.25-4.74.36-4.48.35-8.88.91-13.33 1.55-29.72 2.17-60.97-1.92-90.38-6.06-1.06-.15-2.13-.3-3.22-.46-5.46-.83-10.6-2.05-15.86-3.72-5.56-1.67-11.28-2.75-16.94-3.95-.94-.21-1.88-.41-2.85-.63-.84-.18-1.68-.36-2.55-.54-2.2-.64-2.2-.64-5.2-2.64a95 95 0 0 0-5-1.38c-10.02-2.63-19.48-6.57-29-10.62-.33-.14-.33-.14-2-.84-24.4-10.37-48.17-23.44-68.71-40.31-1.99-1.61-4.02-3.11-6.1-4.6-4.45-3.29-8.43-7.07-12.45-10.85-3.48-3.27-7.06-6.36-10.74-9.4-3.63-3.45-6.79-7.15-10-11l-2.75-2.69C261 1324 261 1324 260 1321l-3-1c-.72-1.05-1.44-2.1-2.19-3.19-2.33-3.27-4.93-6-7.81-8.81-4-4.86-4-4.86-4-11 6.69-8.62 13.51-17.11 20.49-25.49.29-.34.29-.34 1.74-2.09.51-.61 1.02-1.22 1.55-1.85C268 1266 268 1266 269 1264h2c.27-.58.54-1.16.82-1.75 3.72-7.08 9.68-13.04 14.85-19.1 3.88-4.57 7.59-9.25 11.27-13.99 2.97-3.8 6.01-7.53 9.12-11.22 3.96-4.71 7.74-9.53 11.47-14.43 2.56-3.36 5.2-6.61 7.99-9.79 2.52-2.94 4.91-5.99 7.32-9.02 2.33-2.91 4.68-5.81 7.04-8.7.73-.91 1.47-1.82 2.24-2.75C345 1171 345 1171 347 1169c5.92 1.18 6.88 3.34 10.38 7.75q.75.945 1.53 1.92c.49.62.98 1.24 1.49 1.88.22.28.22.28 1.36 1.71 1.31 1.84 2.28 3.7 3.24 5.74l3 1c.4.46.8.92 1.21 1.4q5.175 5.925 10.41 11.79c.72.8 1.43 1.59 2.17 2.42 3.99 4.32 8.11 8.22 12.71 11.89 2.82 2.25 5.48 4.48 8.04 7.05 13.01 12.95 33.71 25.44 51.46 30.45q2.22.735 4.44 1.5c18.53 6.17 36.78 9.7 56.37 9.69h3.27c7.28-.06 14.49-.4 21.73-1.07.87-.07 1.74-.15 2.64-.23 4.04-.42 6.93-.99 10.55-2.89 1.74-.41 3.49-.78 5.25-1.12 10.97-2.64 21.48-8.53 30.75-14.88.6-.39 1.2-.77 1.82-1.17 4.51-3.01 7.83-6.58 11.18-10.83h2c.27-.58.54-1.17.82-1.77 1.16-2.2 2.45-3.98 3.99-5.92 4.72-6.2 8.15-12.91 11.2-20.07.76-1.73 1.61-3.42 2.48-5.09 1.57-3.27 2.56-6.4 3.51-9.9 1.92-6.99 1.92-6.99 2.72-9.44 2.31-7.14 3.43-14.26 4.4-21.69.17-1.15.34-2.3.52-3.48 3.38-25.2 2.51-51.06 2.48-76.44-.01-4.7-.01-9.41-.01-14.11v-24.35c-.01-11.74-.02-23.47-.02-35.2 0-19.05-.01-38.1-.01-57.14l-.03-55.45v-20.66c-.01-47.43-.03-94.86-.05-142.29-3.16-1.85-5.46-2.25-9.11-2.24-1.04 0-2.08-.01-3.15-.01-1.14.01-2.28.02-3.46.02h-3.67c-3.36 0-6.73.01-10.1.03-3.62.01-7.25.01-10.88.01-6.29.01-12.58.02-18.87.04-9.1.02-18.2.04-27.3.05-14.78.01-29.55.03-44.32.06h-2.68c-7.18.02-14.35.03-21.53.05l-18.81.03c-.88 0-1.76 0-2.67.01l-44.15.06c-9.07.01-18.15.02-27.23.05l-18.66.03c-3.59 0-7.18.01-10.77.02-3.89.02-7.78.02-11.67.02-1.14 0-2.27.01-3.44.02-.52 0-.52 0-3.16-.01-.45 0-.45 0-2.73.01C335 728 335 728 329 726c0-158 0-158 1-159"/><path fill="#90C343" d="M914.934 565.918c.94 0 1.87.01 2.84.01 3.16.01 6.32.03 9.47.05l6.77.03 18.43.09c6.41.04 12.83.07 19.24.09 10.77.05 21.54.11 32.31.16 11.09.06 22.18.12 33.28.17.68 0 1.36.01 2.07.01 3.43.02 6.86.03 10.28.05 85.5.4 85.5.4 90.38 4.42 1.77 2.41 1.77 2.41 3.37 5.06.3.49.3.49 1.81 2.94.3.5.3.5 1.82 3 3.88 6.22 7.87 12.34 12.11 18.33 5.75 8.14 11.39 16.36 16.89 24.67 3.02 4.58 6.08 9.14 9.25 13.63 2.96 4.21 5.83 8.46 8.68 12.75.22.32.22.32 1.3 1.94 1.97 2.97 3.94 5.95 5.9 8.92 3.21 4.86 6.48 9.64 9.93 14.32 3.19 4.35 6.1 8.8 8.96 13.36 5.45 8.49 11.24 16.77 17.23 24.89 2.47 3.37 4.8 6.79 7.02 10.33 3.59 5.69 7.35 11.25 11.16 16.8l3.96 5.79c.32.45.32.45 1.89 2.76 3.28 4.81 6.5 9.66 9.72 14.51 1.16 1.75 2.33 3.5 3.5 5.25 2.5 3.75 2.5 3.75 2.5 5.75l3 1c.41.66.82 1.31 1.25 1.99 3.82 6.04 7.73 12.03 11.71 17.97 1.35 2.02 2.7 4.05 4.04 6.08 3.86 5.84 7.85 11.54 12 17.18 2.77 3.86 5.37 7.83 7.98 11.8 2 2.96 4.08 5.85 6.2 8.73 2.18 2.97 4.29 5.92 6.19 9.06 2.31 3.81 4.89 7.4 7.5 11 3.72 5.15 7.23 10.37 10.56 15.79 1.57 2.4 1.57 2.4 3.39 4.65 2.38 3.01 4.48 6.14 6.59 9.35 7.22 10.94 14.73 21.69 22.37 32.32 4.15 5.78 8.24 11.58 12.15 17.52 2.23 3.36 4.55 6.63 6.94 9.87 3.49 4.77 6.79 9.63 10.03 14.56 1.49 2.23 3 4.43 4.56 6.6.21.29.21.29 1.25 1.76 1.16 1.62 2.33 3.24 3.5 4.86 1.7 2.78 2.41 4.71 2.79 7.91-2.27 4.25-4.77 8.13-7.63 12-3.2 4.35-6.27 8.76-9.25 13.25-.42.64-.84 1.28-1.28 1.93-1.68 2.54-3.36 5.09-5.04 7.63a922 922 0 0 1-15.68 23c-6.94 9.87-13.65 19.88-20.29 29.96-3.54 5.37-7.13 10.68-10.96 15.86-3.15 4.27-5.93 8.66-8.55 13.28-1.27 2.01-2.63 3.43-4.32 5.09-.94 1.64-1.87 3.28-2.79 4.93-1.91 3.25-4.12 6.27-6.3 9.34-4.1 5.84-7.99 11.82-11.92 17.78-4.49 6.79-9.17 13.4-13.99 19.95-2.85 3.91-5.53 7.85-8 12a368 368 0 0 1-12.06 18.22c-2.33 3.33-4.57 6.71-6.82 10.09-3.22 4.86-6.48 9.67-9.81 14.44-2.61 3.75-5.14 7.51-7.56 11.38-4.39 6.98-9.1 13.73-13.77 20.52-2.36 3.43-4.68 6.88-6.98 10.35l-14.15 21.22c-1.1 1.65-2.21 3.31-3.3 4.97-3.22 4.85-6.5 9.65-9.8 14.44-4.94 7.16-9.79 14.38-14.6 21.63-1.8 2.71-3.6 5.41-5.4 8.12l-1.97 2.94c-3.39 5.08-6.78 10.17-10.17 15.26-.42.64-.85 1.28-1.29 1.94-.88 1.32-1.76 2.64-2.65 3.96-1.8 2.71-3.61 5.42-5.4 8.14-2.52 3.79-5.08 7.54-7.71 11.26-2.41 3.42-4.71 6.89-6.94 10.43-3.35 5.33-6.9 10.49-10.51 15.65-3.3 4.75-6.45 9.56-9.49 14.48-7.2 11.35-7.2 11.35-11.62 13.56-3.02.1-6.02.14-9.04.13h-2.87c-3.2.01-6.39 0-9.59 0-2.28 0-4.56 0-6.84.01h-18.65c-6.49-.01-12.98 0-19.47 0-11.6 0-23.2 0-34.8-.01h-31.58c-12.22.01-24.43.01-36.64.01h-19.41c-6.08 0-12.16 0-18.24-.01h-6.71c-3.04.01-6.09 0-9.13 0-.9 0-1.79 0-2.71.01-6.1-.02-6.1-.02-8.32-1.14.43-5.26 3.28-8.63 6.31-12.75 1.1-1.52 2.2-3.05 3.3-4.58.56-.77 1.13-1.55 1.71-2.35 2.59-3.58 5.13-7.2 7.68-10.82.99-1.41 1.99-2.82 2.99-4.24 2.03-2.87 4.05-5.74 6.08-8.61 5.14-7.3 10.29-14.58 15.49-21.83 2.32-3.24 4.61-6.49 6.87-9.76 2.87-4.11 5.84-8.15 8.82-12.18 5.35-7.26 10.46-14.67 15.54-22.12 2.7-3.94 5.46-7.85 8.21-11.76.26-.38.26-.38 1.62-2.33 6.46-9.26 13-18.45 19.69-27.54 3.11-4.26 5.96-8.61 8.69-13.13h2c.27-.56.54-1.11.82-1.69 3.15-6.18 6.76-11.96 11.18-17.31 3.07-4.27 6.07-8.59 8.97-12.99 1.9-2.82 3.89-5.5 5.96-8.2 5.83-7.71 11.21-15.72 16.64-23.71 4.69-6.89 9.55-13.66 14.46-20.39 2.41-3.32 4.75-6.67 7.09-10.03 1.69-2.41 3.4-4.81 5.12-7.2 6.4-8.92 12.66-17.94 18.92-26.96 10.41-14.99 10.41-14.99 14.84-21.02 3.09-4.23 6.11-8.5 9.11-12.81 2.13-3.03 4.29-6.05 6.45-9.06 7.17-10.01 14.19-20.12 21.24-30.22 3.37-4.82 6.77-9.63 10.2-14.41 3.41-4.77 6.8-9.57 10.16-14.38 2.22-3.16 4.46-6.3 6.71-9.43 4.79-6.68 9.47-13.42 14.13-20.19h2c.24-.88.49-1.77.75-2.69 1.29-3.41 2.85-5.59 5.25-8.31-.27-6.76-3.09-10.59-7.13-15.87-.59-.8-1.18-1.59-1.79-2.41-3.52-4.73-7.14-9.37-10.81-13.98-1.77-2.41-2.96-5.05-4.27-7.74-1.37-1.95-2.81-3.84-4.27-5.73-4.43-5.78-8.73-11.68-12.73-17.77-2.77-4.19-5.71-8.24-8.68-12.29-3.3-4.55-6.52-9.14-9.76-13.73-3.19-4.53-6.4-9.04-9.63-13.54-4.02-5.6-7.93-11.27-11.82-16.96a800 800 0 0 0-10.61-15.09c-2.49-3.46-4.95-6.95-7.38-10.45-1.67-2.4-3.35-4.72-5.19-7-2.89-3.65-5.38-7.55-7.93-11.44-4.02-6.1-8.03-12.16-12.46-17.97-5.57-7.31-10.78-14.82-15.84-22.49-3.03-4.56-6.19-9-9.45-13.4-2.96-4.12-5.79-8.32-8.63-12.51a357 357 0 0 0-14.39-19.74c-9.23-11.94-9.23-11.94-9.23-14.89h-2c-.3-.47-.59-.94-.89-1.43-8.33-13.44-17.54-26.27-26.91-39.01-8.49-11.59-16.66-23.42-24.83-35.25-3.82-5.53-7.69-11.03-11.58-16.51-2.77-3.93-5.54-7.86-8.29-11.8-5.79-8.32-11.62-16.59-17.65-24.74-3.77-5.11-7.39-10.31-10.98-15.55-1.58-2.28-3.19-4.51-4.87-6.71v-6c3.38-1.69 7.21-1.11 10.93-1.08M1477 1026c3.54 1.44 5.04 3.09 7.12 6.25 3.38 5.02 6.87 9.94 10.42 14.84 2.31 3.22 4.42 6.5 6.46 9.91 1.17 1.64 2.36 3.26 3.56 4.88 3.33 4.52 6.48 9.12 9.56 13.81 2.98 4.5 6 8.92 9.28 13.2 6.92 9.13 13.34 18.62 19.78 28.08 3.59 5.25 7.23 10.45 10.94 15.61 3.67 5.11 7.28 10.26 10.88 15.42 4.52 6.47 9.06 12.91 13.66 19.33 3.48 4.86 6.92 9.76 10.34 14.67 1.12 1.6 2.25 3.21 3.38 4.81 2.61 3.74 5.21 7.5 7.81 11.25 21.11 30.55 21.11 30.55 29.81 41.88 2.75 3.62 5.24 7.39 7.75 11.18 4.51 6.83 9.2 13.5 13.99 20.13 1.71 2.38 3.41 4.76 5.11 7.15 3.32 4.66 6.65 9.3 10.03 13.91 7.69 10.56 15.2 21.24 22.4 32.14 1.92 2.85 3.95 5.58 6.03 8.3 2.24 2.99 4.4 6.02 6.57 9.06 2.97 4.19 5.96 8.36 9 12.5 6.64 9.12 13.12 18.36 19.56 27.63 2.71 3.89 5.49 7.72 8.27 11.56 15.08 20.76 15.08 20.76 19.29 29.5-12.17 12.17-72.57 2.09-91.61 2.1-3.52 0-7.05.01-10.57.01h-2.13c-11.37.01-22.74.03-34.11.04-11.66.02-23.32.03-34.98.04-6.55 0-13.1.01-19.66.02-6.16.02-12.32.02-18.48.02-2.27 0-4.53 0-6.8.01-3.09.01-6.17.01-9.26 0-.9.01-1.8.01-2.73.02-.83-.01-1.66-.01-2.51-.01H1523c-3.17-.39-5.35-1.46-7.39-3.92-.43-.69-.86-1.37-1.3-2.08-.51-.8-1.02-1.61-1.55-2.43L1511 1414c-1.07-1.68-2.15-3.35-3.23-5.03-.77-1.19-1.54-2.39-2.3-3.59-2.53-3.95-5.11-7.86-7.72-11.76-2.56-3.82-5.06-7.66-7.48-11.58-5.25-8.46-10.72-16.77-16.27-25.04l-6-9c-1.33-1.99-2.66-3.98-4-5.96-3.43-5.1-6.75-10.23-9.94-15.48-4.09-6.71-8.54-13.13-13.06-19.56-5.53-7.88-10.89-15.84-16-24-4.88-7.75-9.9-15.39-15-23-1.33-2-2.67-4-4-6l-2-3c-21.75-32.62-21.75-32.62-23.71-35.57-1.79-2.69-3.59-5.37-5.39-8.05-.54-.8-1.08-1.61-1.64-2.44-1.07-1.6-2.15-3.2-3.22-4.8l-1.5-2.23c-.44-.66-.88-1.32-1.34-1.99-3.25-5.19-3.25-5.19-3.02-8.47 1.06-4.45 3.17-7.14 5.94-10.7 1.02-1.34 2.03-2.67 3.04-4.01.49-.64.98-1.28 1.48-1.95 2.91-3.84 5.62-7.83 8.36-11.79.35-.5.35-.5 2.11-3.04 1.91-2.76 3.82-5.52 5.73-8.29 2.64-3.81 5.28-7.62 7.92-11.44 1.46-2.11 2.93-4.22 4.38-6.34 3.76-5.44 7.54-10.86 11.36-16.25 4.57-6.45 9.08-12.94 13.44-19.54 6.53-9.81 13.29-19.46 20.06-29.1.27-.39.27-.39 1.63-2.34 3.8-5.44 7.65-10.86 11.52-16.25 2.16-3.02 4.3-6.05 6.39-9.12.2-.3.2-.3 1.22-1.8 1.11-1.65 2.22-3.3 3.33-4.94 1.91-2.55 1.91-2.55 4.91-4.55m49.789-460.082c.91 0 1.82.01 2.75.01 3.06.01 6.12.03 9.18.05l6.56.03 17.85.09c6.22.04 12.43.07 18.65.09 10.43.05 20.86.11 31.3.16 10.74.06 21.49.12 32.24.17.66 0 1.32.01 2 .01 3.33.02 6.65.03 9.97.05 27.57.13 55.14.28 82.71.42l1 5c-.39.52-.39.52-2.38 3.15-5.05 6.7-10.08 13.4-14.85 20.3-2.21 3.18-4.45 6.34-6.71 9.49-.42.6-.85 1.2-1.29 1.81-2.63 3.68-5.29 7.35-7.96 11-2.47 3.39-4.91 6.81-7.31 10.25-4.41 6.34-8.98 12.56-13.54 18.79-3.83 5.25-7.59 10.54-11.31 15.88-1.53 2.16-3.1 4.28-4.71 6.39-1.99 2.64-3.87 5.31-5.69 8.07-3.05 4.63-6.27 9.14-9.51 13.65-2.43 3.39-4.85 6.8-7.24 10.22-11.1 15.91-11.1 15.91-16.44 22.88-2.82 3.72-5.43 7.57-8.06 11.43-4.86 7.14-9.94 14.1-15.08 21.04-3.44 4.64-6.82 9.29-10.11 14.04-2.46 3.55-4.94 7.08-7.43 10.61-.51.73-1.02 1.45-1.55 2.19-4.34 6.15-8.75 12.25-13.17 18.35-3.95 5.45-7.8 10.97-11.61 16.52-2 2.87-4.04 5.69-6.11 8.5-2.73 3.73-5.34 7.52-7.88 11.38-3.39 5.13-7 10.05-10.71 14.95-6.72 8.93-13.07 18.13-19.38 27.35-3.88 5.67-7.9 11.23-11.97 16.76-2 2.76-4.01 5.51-6.01 8.27-1.3 1.78-2.6 3.57-3.92 5.34-4.43 6.02-8.62 12.15-12.66 18.44-1.96 3.01-3.38 4.93-6.41 6.95h-3c-8.42-11.53-16.61-23.2-24.64-35.01-2.2-3.22-4.44-6.41-6.69-9.6-2.46-3.52-4.9-7.05-7.34-10.58-2.24-3.24-4.49-6.46-6.77-9.68-2.82-4.02-5.54-8.1-8.25-12.19-4.27-6.46-8.7-12.81-13.2-19.13-2.77-3.89-5.47-7.82-8.11-11.81-1.01-1.46-2.03-2.92-3.06-4.37-3.07-4.38-6.1-8.78-9.13-13.19-4.52-6.6-9.11-13.15-13.75-19.68-8.09-11.4-8.09-11.4-7.85-14.36.95-4.07 2.87-6.58 5.48-9.71.92-1.15 1.84-2.3 2.75-3.45.22-.28.22-.28 1.35-1.68 2.08-2.67 3.89-5.5 5.73-8.33 1.69-2.55 3.48-5.01 5.29-7.48 5.92-8.08 11.6-16.33 17.13-24.69 3.32-5 6.77-9.89 10.27-14.77 3.63-5.05 7.18-10.15 10.71-15.27 1.85-2.68 3.71-5.35 5.58-8.02 2.68-3.82 5.35-7.66 8-11.5 3.21-4.64 6.44-9.28 9.69-13.9 2.51-3.59 4.99-7.19 7.48-10.79 2.18-3.16 4.38-6.3 6.58-9.43 2.28-3.25 4.53-6.52 6.76-9.8 5.51-8.1 11.06-16.1 17.01-23.89 2.61-3.54 4.91-7.23 7.23-10.97 2.45-3.81 5.14-7.43 7.83-11.07 2.3-3.18 4.42-6.45 6.5-9.77 4.61-6.08 10.1-6.02 17.21-5.96"/></svg>